<?xml version="1.0" encoding="UTF-8"?>
<svg id="Layer_1" data-name="Layer 1" xmlns="http://www.w3.org/2000/svg" viewBox="0 0 1206.96 1545.12">
  <defs>
    <style>
      .cls-1 { fill: #fff; }
      .cls-2 { fill: #7B1FA2; }
      .cls-3 { fill: #677a89; }
    </style>
  </defs>
  <path class="cls-3" d="M1206.96,603.46c0,60.62-8.94,119.2-25.58,174.41-4.08,13.54-8.61,26.88-13.63,39.99-.42,1.13-.87,2.27-1.33,3.43-6.09,15.19-14.35,34.19-25.48,56.89-.06.16-.16.32-.26.49-60.62,123.5-205.49,355.23-537.18,666.44C272.81,1234.84,127.81,1003.57,66.87,879.81c-12.4-25.19-21.34-45.92-27.65-61.95-.13-.39-.29-.74-.42-1.1-4.73-12.5-9.07-25.22-12.98-38.11-.1-.29-.13-.49-.16-.62-.03-.16-.06-.23-.06-.23C8.94,722.59,0,664.08,0,603.46,0,270.16,270.19,0,603.5,0s603.46,270.16,603.46,603.46Z"/>
  <path class="cls-1" d="M603.49,81.37c-287.89,0-522.1,234.21-522.1,522.1s234.21,522.1,522.1,522.1,522.1-234.21,522.1-522.1S891.37,81.37,603.49,81.37Z"/>
  <path class="cls-2" d="M1064.03,603.46c0,231.88-171.4,423.74-394.38,455.8-21.6,3.11-43.68,4.73-66.16,4.73-23.87,0-47.28-1.81-70.17-5.31-221.04-33.77-390.36-224.73-390.36-455.22,0-254.36,206.17-460.53,460.53-460.53s460.53,206.17,460.53,460.53Z"/>
  <g transform="translate(353.64, 353.64) scale(0.976)">
    <path class="cls-1" d="M501.62 92.11L267.24 2.04a31.958 31.958 0 0 0-22.47 0L10.38 92.11A16.001 16.001 0 0 0 0 107.09V144c0 8.84 7.16 16 16 16h480c8.84 0 16-7.16 16-16v-36.91c0-6.67-4.14-12.64-10.38-14.98zM64 192v160H48c-8.84 0-16 7.16-16 16v48h448v-48c0-8.84-7.16-16-16-16h-16V192h-64v160h-96V192h-64v160h-96V192H64zm432 256H16c-8.84 0-16 7.16-16 16v32c0 8.84 7.16 16 16 16h480c8.84 0 16-7.16 16-16v-32c0-8.84-7.16-16-16-16z"/>
  </g>
</svg>
