<?xml version="1.0" encoding="UTF-8"?>
<svg id="Layer_1" data-name="Layer 1" xmlns="http://www.w3.org/2000/svg" viewBox="0 0 1206.96 1545.12">
  <defs>
    <style>
      .cls-1 { fill: #fff; }
      .cls-2 { fill: #1565C0; }
      .cls-3 { fill: #677a89; }
    </style>
  </defs>
  <path class="cls-3" d="M1206.96,603.46c0,60.62-8.94,119.2-25.58,174.41-4.08,13.54-8.61,26.88-13.63,39.99-.42,1.13-.87,2.27-1.33,3.43-6.09,15.19-14.35,34.19-25.48,56.89-.06.16-.16.32-.26.49-60.62,123.5-205.49,355.23-537.18,666.44C272.81,1234.84,127.81,1003.57,66.87,879.81c-12.4-25.19-21.34-45.92-27.65-61.95-.13-.39-.29-.74-.42-1.1-4.73-12.5-9.07-25.22-12.98-38.11-.1-.29-.13-.49-.16-.62-.03-.16-.06-.23-.06-.23C8.94,722.59,0,664.08,0,603.46,0,270.16,270.19,0,603.5,0s603.46,270.16,603.46,603.46Z"/>
  <path class="cls-1" d="M603.49,81.37c-287.89,0-522.1,234.21-522.1,522.1s234.21,522.1,522.1,522.1,522.1-234.21,522.1-522.1S891.37,81.37,603.49,81.37Z"/>
  <path class="cls-2" d="M1064.03,603.46c0,231.88-171.4,423.74-394.38,455.8-21.6,3.11-43.68,4.73-66.16,4.73-23.87,0-47.28-1.81-70.17-5.31-221.04-33.77-390.36-224.73-390.36-455.22,0-254.36,206.17-460.53,460.53-460.53s460.53,206.17,460.53,460.53Z"/>
  <g transform="translate(353.64, 353.64) scale(0.976)">
    <path class="cls-1" d="M512 144v288c0 26.5-21.5 48-48 48H48c-26.5 0-48-21.5-48-48V144c0-26.5 21.5-48 48-48h88l12.3-32.9c7-18.7 24.9-31.1 44.9-31.1h125.5c20 0 37.9 12.4 44.9 31.1L376 96h88c26.5 0 48 21.5 48 48zM376 288c0-66.2-53.8-120-120-120s-120 53.8-120 120 53.8 120 120 120 120-53.8 120-120zm-32 0c0 48.5-39.5 88-88 88s-88-39.5-88-88 39.5-88 88-88 88 39.5 88 88z"/>
  </g>
</svg>
