<?xml version="1.0" encoding="UTF-8"?>
<svg id="Layer_1" data-name="Layer 1" xmlns="http://www.w3.org/2000/svg" viewBox="0 0 1206.96 1545.12">
  <defs>
    <style>
      .cls-1 {
        fill: #fff;
      }

      .cls-2 {
        fill: #34a160;
      }

      .cls-3 {
        fill: #677a89;
      }
    </style>
  </defs>
  <path class="cls-3" d="M1206.96,603.46c0,60.62-8.94,119.2-25.58,174.41-4.08,13.54-8.61,26.88-13.63,39.99-.42,1.13-.87,2.27-1.33,3.43-6.09,15.19-14.35,34.19-25.48,56.89-.06.16-.16.32-.26.49-60.62,123.5-205.49,355.23-537.18,666.44C272.81,1234.84,127.81,1003.57,66.87,879.81c-12.4-25.19-21.34-45.92-27.65-61.95-.13-.39-.29-.74-.42-1.1-4.73-12.5-9.07-25.22-12.98-38.11-.1-.29-.13-.49-.16-.62-.03-.16-.06-.23-.06-.23C8.94,722.59,0,664.08,0,603.46,0,270.16,270.19,0,603.5,0s603.46,270.16,603.46,603.46Z"/>
  <path class="cls-1" d="M603.49,81.37c-287.89,0-522.1,234.21-522.1,522.1s234.21,522.1,522.1,522.1,522.1-234.21,522.1-522.1S891.37,81.37,603.49,81.37Z"/>
  <path class="cls-2" d="M1064.03,603.46c0,231.88-171.4,423.74-394.38,455.8-21.6,3.11-43.68,4.73-66.16,4.73-23.87,0-47.28-1.81-70.17-5.31-221.04-33.77-390.36-224.73-390.36-455.22,0-254.36,206.17-460.53,460.53-460.53s460.53,206.17,460.53,460.53Z"/>
  <path class="cls-1" d="M848.36,789.32l249.43-257.46-37.21-36.05-255.5,263.72c-28.65-14.7-60.66-22.72-93.24-22.72h-274.11c-37.1,0-73.05-13.27-101.24-37.37l-26.74-22.85,26.64-26.64c28.36-28.36,43.97-66.06,43.97-106.16v-55.4h248.83l269.42-270.21-36.69-36.58-254.24,254.98h-127.26V137.59h-51.81v298.99H128.87v51.81h199.69v55.4c0,26.26-10.23,50.96-28.8,69.53l-160.37,160.37,36.63,36.63,96.99-96.99,29.83,25.49c37.55,32.12,85.46,49.8,134.9,49.8h274.11c41.06,0,80.96,16.93,109.47,46.46l113.43,117.38,37.26-36-113.42-117.38c-3.28-3.4-6.72-6.63-10.22-9.78Z"/>
  <path class="cls-1" d="M603.49,1087.31c-24.68,0-49.47-1.88-73.69-5.58l-19.79-3.02v-508.45c0-10.1-8.21-18.31-18.31-18.31h-158.72v-182.92h541.94v182.92h-163.64c-10.1,0-18.31,8.21-18.31,18.31v509.21l-20,2.87c-22.9,3.29-46.28,4.96-69.47,4.96Z"/>
  <path class="cls-3" d="M851.6,392.34v136.29h-140.32c-22.99,0-41.63,18.64-41.63,41.63v489.01c-21.6,3.11-43.68,4.73-66.16,4.73-23.87,0-47.28-1.81-70.17-5.31v-488.43c0-22.99-18.64-41.63-41.63-41.63h-135.4v-136.29h495.31Z"/>
  <path class="cls-1" d="M608.58,697.63h-12.95v-42.1h12.95v42.1ZM608.58,613.44h-12.95v-42.1h12.95v42.1ZM615.64,532.49l-12.09-4.65c5.35-13.91,13.18-26.57,23.27-37.63l9.57,8.73c-9,9.87-15.98,21.16-20.74,33.55ZM667.89,475.19l-5.75-11.61c13.37-6.62,27.71-10.63,42.61-11.92l1.11,12.91c-13.28,1.14-26.06,4.71-37.97,10.62ZM789.48,464.18h-42.1v-12.95h42.1v12.95Z"/>
  <path class="cls-1" d="M548.13,465.41h-42.1v-12.95h42.1v12.95ZM463.94,465.41h-42.1v-12.95h42.1v12.95Z"/>
  <path class="cls-1" d="M609.97,1030.24h-12.95v-42.1h12.95v42.1ZM609.97,946.04h-12.95v-42.1h12.95v42.1ZM609.97,861.85h-12.95v-42.1h12.95v42.1Z"/>
</svg>